<svg width="160" height="99" viewBox="0 0 160 99" fill="none" xmlns="http://www.w3.org/2000/svg">
<path fill-rule="evenodd" clip-rule="evenodd" d="M20.1269 30.1773C17.291 33.0122 17.291 37.6576 20.1269 40.4925L28.0738 48.4394L20.1269 56.3863C17.291 59.2221 17.291 63.8666 20.1269 66.7015C22.9618 69.5363 27.6072 69.5363 30.4421 66.7015L40.3915 56.752C44.9621 52.1815 44.9621 44.6973 40.3915 40.1267L30.4421 30.1773C29.0242 28.7594 27.155 28.0509 25.285 28.0509C23.4149 28.0509 21.5448 28.7594 20.1278 30.1773H20.1269Z" fill="#920D4D"/>
<path fill-rule="evenodd" clip-rule="evenodd" d="M28.6546 32.0061C28.6546 41.4736 31.2763 48.7706 36.5208 53.896C37.6747 55.025 38.9122 56.0291 40.2331 56.9095L40.3915 56.7511C44.9621 52.1805 44.9621 44.6963 40.3915 40.1258L30.4421 30.1763C29.9035 29.6378 29.2997 29.201 28.6555 28.8679V32.0061H28.6546Z" fill="#F40F5E"/>
<path fill-rule="evenodd" clip-rule="evenodd" d="M20.1269 56.3862C17.291 59.2221 17.291 63.8666 20.1269 66.7014C22.813 69.3875 27.1224 69.5286 29.9794 67.1267C30.0418 61.3773 28.8379 55.5213 26.6818 49.8314L20.1269 56.3862Z" fill="#6C14AC"/>
<path fill-rule="evenodd" clip-rule="evenodd" d="M48.3509 28.001C52.38 28.001 55.6459 31.2669 55.6459 35.297C55.6459 39.3261 52.38 42.592 48.3509 42.592C44.3218 42.592 41.0558 39.3261 41.0558 35.297C41.0558 31.2679 44.3218 28.001 48.3509 28.001Z" fill="#E54722"/>
<path fill-rule="evenodd" clip-rule="evenodd" d="M43.1947 30.1283C45.0754 31.1747 47.0683 31.8822 49.1746 32.0925C51.2203 32.4026 53.1768 32.4842 55.0411 32.3632C54.6878 31.551 54.181 30.7907 53.5186 30.1283C52.0997 28.7094 50.2277 28 48.3566 28C46.4856 28 44.6146 28.7094 43.1957 30.1274L43.1947 30.1283Z" fill="#7331F3"/>
<path fill-rule="evenodd" clip-rule="evenodd" d="M43.1938 40.4532C46.045 43.3044 50.6664 43.3044 53.5176 40.4532C54.3144 39.6564 54.8875 38.7165 55.237 37.7143C50.7931 35.5245 46.1486 34.0288 41.3938 33.089C40.6008 35.6023 41.2008 38.4602 43.1938 40.4532Z" fill="#FEBA7E"/>
<path d="M48.8007 68.2742V62.2168H50.8474C51.3226 62.2168 51.7111 62.3026 52.0128 62.4741C52.3164 62.6437 52.5412 62.8734 52.6871 63.1633C52.833 63.4531 52.906 63.7765 52.906 64.1334C52.906 64.4903 52.833 64.8147 52.6871 65.1065C52.5432 65.3983 52.3204 65.631 52.0187 65.8045C51.717 65.9761 51.3305 66.0619 50.8593 66.0619H49.3922V65.4112H50.8356C51.1609 65.4112 51.4222 65.355 51.6194 65.2426C51.8166 65.1302 51.9595 64.9783 52.0483 64.7871C52.139 64.5938 52.1843 64.3759 52.1843 64.1334C52.1843 63.8909 52.139 63.674 52.0483 63.4827C51.9595 63.2914 51.8156 63.1416 51.6164 63.0331C51.4173 62.9227 51.1531 62.8675 50.8238 62.8675H49.5342V68.2742H48.8007ZM54.3361 62.2168L56.1343 67.3159H56.2053L58.0036 62.2168H58.7726L56.5484 68.2742H55.7913L53.567 62.2168H54.3361ZM59.3849 62.8675V62.2168H63.9279V62.8675H62.0232V68.2742H61.2897V62.8675H59.3849ZM65.1894 68.3216C65.0435 68.3216 64.9183 68.2693 64.8138 68.1648C64.7093 68.0603 64.657 67.9351 64.657 67.7892C64.657 67.6432 64.7093 67.518 64.8138 67.4135C64.9183 67.309 65.0435 67.2568 65.1894 67.2568C65.3353 67.2568 65.4605 67.309 65.565 67.4135C65.6695 67.518 65.7218 67.6432 65.7218 67.7892C65.7218 67.8858 65.6971 67.9745 65.6478 68.0554C65.6005 68.1362 65.5364 68.2013 65.4556 68.2506C65.3767 68.2979 65.288 68.3216 65.1894 68.3216ZM69.4115 68.2742V62.2168H70.1451V67.6235H72.9608V68.2742H69.4115ZM72.9601 62.8675V62.2168H77.5031V62.8675H75.5984V68.2742H74.8648V62.8675H72.9601ZM80.5045 68.2742H78.6352V62.2168H80.5873C81.1749 62.2168 81.6777 62.3381 82.0957 62.5806C82.5137 62.8212 82.8342 63.1672 83.057 63.6188C83.2798 64.0683 83.3912 64.6066 83.3912 65.2337C83.3912 65.8647 83.2788 66.4079 83.054 66.8634C82.8292 67.3169 82.5019 67.6659 82.0721 67.9104C81.6422 68.153 81.1197 68.2742 80.5045 68.2742ZM79.3687 67.6235H80.4571C80.958 67.6235 81.3731 67.5269 81.7023 67.3337C82.0316 67.1404 82.2771 66.8654 82.4388 66.5085C82.6005 66.1516 82.6814 65.7266 82.6814 65.2337C82.6814 64.7447 82.6015 64.3237 82.4418 63.9707C82.2821 63.6158 82.0435 63.3437 81.726 63.1544C81.4085 62.9631 81.0132 62.8675 80.54 62.8675H79.3687V67.6235ZM84.6534 68.3216C84.5075 68.3216 84.3823 68.2693 84.2778 68.1648C84.1733 68.0603 84.121 67.9351 84.121 67.7892C84.121 67.6432 84.1733 67.518 84.2778 67.4135C84.3823 67.309 84.5075 67.2568 84.6534 67.2568C84.7993 67.2568 84.9245 67.309 85.029 67.4135C85.1335 67.518 85.1858 67.6432 85.1858 67.7892C85.1858 67.8858 85.1612 67.9745 85.1119 68.0554C85.0645 68.1362 85.0004 68.2013 84.9196 68.2506C84.8407 68.2979 84.752 68.3216 84.6534 68.3216Z" fill="white"/>
<path d="M48.6886 47.0159H50.1231L51.5043 49.6246H51.5635L52.9447 47.0159H54.3792L52.1698 50.9319V53.0733H50.898V50.9319L48.6886 47.0159ZM58.8202 47.0159H60.1009V50.9497C60.1009 51.3913 59.9954 51.7778 59.7844 52.1091C59.5754 52.4403 59.2826 52.6987 58.906 52.884C58.5294 53.0674 58.0907 53.1591 57.5898 53.1591C57.087 53.1591 56.6473 53.0674 56.2707 52.884C55.8941 52.6987 55.6013 52.4403 55.3922 52.1091C55.1832 51.7778 55.0787 51.3913 55.0787 50.9497V47.0159H56.3594V50.8402C56.3594 51.0709 56.4097 51.276 56.5103 51.4554C56.6128 51.6349 56.7567 51.7758 56.9421 51.8784C57.1274 51.9809 57.3433 52.0322 57.5898 52.0322C57.8383 52.0322 58.0542 51.9809 58.2376 51.8784C58.4229 51.7758 58.5659 51.6349 58.6664 51.4554C58.769 51.276 58.8202 51.0709 58.8202 50.8402V47.0159ZM65.1712 48.9739C65.1298 48.83 65.0716 48.7028 64.9967 48.5923C64.9218 48.48 64.8301 48.3853 64.7216 48.3084C64.6151 48.2295 64.4929 48.1694 64.3549 48.128C64.2188 48.0866 64.068 48.0659 63.9023 48.0659C63.5928 48.0659 63.3206 48.1428 63.086 48.2966C62.8533 48.4504 62.6719 48.6742 62.5418 48.968C62.4116 49.2598 62.3466 49.6167 62.3466 50.0387C62.3466 50.4606 62.4107 50.8195 62.5388 51.1153C62.667 51.4111 62.8484 51.6368 63.083 51.7926C63.3177 51.9464 63.5947 52.0233 63.9142 52.0233C64.204 52.0233 64.4515 51.972 64.6565 51.8695C64.8636 51.765 65.0213 51.6181 65.1298 51.4288C65.2402 51.2395 65.2954 51.0157 65.2954 50.7574L65.5557 50.7959H63.994V49.8316H66.5288V50.5947C66.5288 51.1271 66.4164 51.5846 66.1916 51.9671C65.9668 52.3477 65.6572 52.6415 65.2629 52.8485C64.8685 53.0536 64.417 53.1561 63.9082 53.1561C63.3404 53.1561 62.8415 53.0309 62.4116 52.7805C61.9818 52.5281 61.6466 52.1702 61.406 51.7068C61.1674 51.2415 61.0481 50.6894 61.0481 50.0505C61.0481 49.5595 61.1191 49.1218 61.2611 48.7373C61.405 48.3508 61.6062 48.0235 61.8645 47.7553C62.1228 47.4871 62.4235 47.2831 62.7666 47.1431C63.1097 47.0031 63.4813 46.9331 63.8816 46.9331C64.2247 46.9331 64.5442 46.9833 64.8399 47.0839C65.1357 47.1825 65.3979 47.3225 65.6267 47.5039C65.8574 47.6853 66.0457 47.9012 66.1916 48.1516C66.3375 48.4001 66.4312 48.6742 66.4726 48.9739H65.1712ZM68.3478 53.0733H66.9754L69.0665 47.0159H70.7169L72.805 53.0733H71.4327L69.9154 48.4001H69.868L68.3478 53.0733ZM68.262 50.6923H71.5037V51.692H68.262V50.6923ZM78.6007 47.0159V53.0733H77.4945L74.8592 49.2608H74.8148V53.0733H73.5341V47.0159H74.6581L77.2727 50.8254H77.3259V47.0159H78.6007ZM81.8061 53.0733H79.6588V47.0159H81.8239C82.4332 47.0159 82.9577 47.1371 83.3974 47.3797C83.8371 47.6202 84.1752 47.9663 84.4119 48.4178C84.6505 48.8694 84.7697 49.4097 84.7697 50.0387C84.7697 50.6697 84.6505 51.2119 84.4119 51.6654C84.1752 52.1189 83.8351 52.467 83.3915 52.7095C82.9498 52.952 82.4213 53.0733 81.8061 53.0733ZM80.9395 51.976H81.7529C82.1315 51.976 82.4499 51.9089 82.7082 51.7749C82.9685 51.6388 83.1637 51.4288 83.2938 51.1449C83.426 50.859 83.492 50.4902 83.492 50.0387C83.492 49.5911 83.426 49.2253 83.2938 48.9414C83.1637 48.6574 82.9695 48.4484 82.7112 48.3143C82.4529 48.1802 82.1344 48.1132 81.7558 48.1132H80.9395V51.976ZM85.7184 53.0733V47.0159H86.9991V49.5152H89.599V47.0159H90.8767V53.0733H89.599V50.5711H86.9991V53.0733H85.7184ZM92.9767 53.0733H91.6043L93.6954 47.0159H95.3458L97.4339 53.0733H96.0616L94.5443 48.4001H94.4969L92.9767 53.0733ZM92.8909 50.6923H96.1326V51.692H92.8909V50.6923ZM98.163 53.0733V47.0159H100.553C101.01 47.0159 101.401 47.0977 101.724 47.2614C102.049 47.4231 102.297 47.6528 102.467 47.9505C102.638 48.2463 102.724 48.5943 102.724 48.9946C102.724 49.3968 102.637 49.7429 102.464 50.0328C102.29 50.3206 102.039 50.5415 101.709 50.6953C101.382 50.8491 100.986 50.926 100.52 50.926H98.9202V49.8967H100.313C100.558 49.8967 100.761 49.8632 100.923 49.7961C101.084 49.7291 101.205 49.6285 101.283 49.4945C101.364 49.3604 101.405 49.1938 101.405 48.9946C101.405 48.7935 101.364 48.6239 101.283 48.4859C101.205 48.3478 101.083 48.2433 100.92 48.1723C100.758 48.0994 100.554 48.0629 100.307 48.0629H99.4437V53.0733H98.163ZM101.434 50.3167L102.94 53.0733H101.526L100.053 50.3167H101.434ZM104.673 53.0733H103.301L105.392 47.0159H107.042L109.13 53.0733H107.758L106.241 48.4001H106.193L104.673 53.0733ZM104.587 50.6923H107.829V51.692H104.587V50.6923Z" fill="white"/>
<path d="M52.3295 56.3544C52.3059 56.1158 52.2043 55.9305 52.0249 55.7984C51.8454 55.6662 51.6019 55.6002 51.2943 55.6002C51.0853 55.6002 50.9088 55.6298 50.7649 55.6889C50.621 55.7461 50.5105 55.826 50.4336 55.9285C50.3587 56.031 50.3212 56.1474 50.3212 56.2775C50.3173 56.386 50.34 56.4806 50.3893 56.5615C50.4405 56.6423 50.5105 56.7123 50.5993 56.7715C50.688 56.8286 50.7905 56.8789 50.9069 56.9223C51.0232 56.9637 51.1474 56.9992 51.2795 57.0288L51.8238 57.1589C52.088 57.2181 52.3305 57.2969 52.5514 57.3955C52.7722 57.4941 52.9635 57.6154 53.1251 57.7593C53.2868 57.9033 53.412 58.0729 53.5008 58.2681C53.5915 58.4633 53.6378 58.6871 53.6398 58.9395C53.6378 59.3102 53.5432 59.6316 53.3559 59.9037C53.1705 60.1738 52.9023 60.3838 52.5514 60.5337C52.2023 60.6816 51.7814 60.7555 51.2884 60.7555C50.7994 60.7555 50.3735 60.6806 50.0107 60.5307C49.6498 60.3809 49.3679 60.159 49.1648 59.8652C48.9636 59.5695 48.8582 59.2037 48.8483 58.7679H50.0876C50.1014 58.971 50.1595 59.1406 50.2621 59.2766C50.3666 59.4107 50.5056 59.5123 50.6791 59.5813C50.8546 59.6483 51.0528 59.6819 51.2736 59.6819C51.4905 59.6819 51.6788 59.6503 51.8385 59.5872C52.0002 59.5241 52.1254 59.4364 52.2142 59.324C52.3029 59.2116 52.3473 59.0824 52.3473 58.9365C52.3473 58.8005 52.3068 58.6861 52.226 58.5934C52.1471 58.5007 52.0308 58.4219 51.877 58.3568C51.7252 58.2917 51.5388 58.2326 51.318 58.1793L50.6584 58.0137C50.1477 57.8895 49.7445 57.6953 49.4487 57.431C49.1529 57.1668 49.006 56.8109 49.008 56.3633C49.006 55.9965 49.1036 55.6761 49.3008 55.402C49.5 55.1279 49.7731 54.914 50.1201 54.7602C50.4671 54.6064 50.8615 54.5295 51.3032 54.5295C51.7528 54.5295 52.1452 54.6064 52.4804 54.7602C52.8175 54.914 53.0798 55.1279 53.2671 55.402C53.4544 55.6761 53.5511 55.9936 53.557 56.3544H52.3295ZM54.2705 55.6682V54.6123H59.2454V55.6682H57.3909V60.6697H56.125V55.6682H54.2705ZM60.0647 60.6697V54.6123H62.4545C62.912 54.6123 63.3024 54.6941 63.6258 54.8578C63.9511 55.0195 64.1986 55.2492 64.3682 55.547C64.5397 55.8427 64.6255 56.1908 64.6255 56.591C64.6255 56.9933 64.5387 57.3393 64.3652 57.6292C64.1917 57.9171 63.9403 58.1379 63.611 58.2917C63.2837 58.4455 62.8873 58.5224 62.422 58.5224H60.8219V57.4931H62.2149C62.4595 57.4931 62.6626 57.4596 62.8242 57.3926C62.9859 57.3255 63.1062 57.225 63.1851 57.0909C63.2659 56.9568 63.3063 56.7902 63.3063 56.591C63.3063 56.3899 63.2659 56.2203 63.1851 56.0823C63.1062 55.9443 62.9849 55.8398 62.8213 55.7688C62.6596 55.6958 62.4555 55.6593 62.209 55.6593H61.3454V60.6697H60.0647ZM63.3359 57.9131L64.8414 60.6697H63.4276L61.9547 57.9131H63.3359ZM66.5746 60.6697H65.2022L67.2933 54.6123H68.9438L71.0319 60.6697H69.6595L68.1422 55.9965H68.0949L66.5746 60.6697ZM66.4888 58.2888H69.7305V59.2885H66.4888V58.2888ZM70.7901 55.6682V54.6123H75.765V55.6682H73.9105V60.6697H72.6446V55.6682H70.7901ZM76.5843 60.6697V54.6123H80.6659V55.6682H77.865V57.1116H80.4559V58.1675H77.865V59.6138H80.6777V60.6697H76.5843ZM85.7007 56.5703C85.6593 56.4264 85.6011 56.2992 85.5262 56.1888C85.4513 56.0764 85.3596 55.9817 85.2511 55.9048C85.1446 55.826 85.0224 55.7658 84.8844 55.7244C84.7483 55.683 84.5975 55.6623 84.4318 55.6623C84.1223 55.6623 83.8501 55.7392 83.6155 55.893C83.3828 56.0468 83.2014 56.2706 83.0713 56.5644C82.9411 56.8562 82.8761 57.2131 82.8761 57.6351C82.8761 58.0571 82.9402 58.416 83.0683 58.7117C83.1965 59.0075 83.3779 59.2333 83.6125 59.389C83.8472 59.5428 84.1242 59.6197 84.4437 59.6197C84.7335 59.6197 84.981 59.5685 85.186 59.4659C85.3931 59.3614 85.5508 59.2145 85.6593 59.0252C85.7697 58.8359 85.8249 58.6121 85.8249 58.3538L86.0852 58.3923H84.5235V57.4281H87.0583V58.1912C87.0583 58.7236 86.9459 59.181 86.7211 59.5635C86.4963 59.9441 86.1867 60.2379 85.7924 60.445C85.398 60.65 84.9465 60.7526 84.4377 60.7526C83.8699 60.7526 83.371 60.6273 82.9411 60.3769C82.5113 60.1245 82.1761 59.7666 81.9355 59.3033C81.6969 58.8379 81.5776 58.2858 81.5776 57.6469C81.5776 57.156 81.6486 56.7182 81.7906 56.3337C81.9345 55.9472 82.1357 55.6199 82.394 55.3517C82.6523 55.0836 82.953 54.8795 83.2961 54.7395C83.6392 54.5995 84.0108 54.5295 84.4111 54.5295C84.7542 54.5295 85.0737 54.5798 85.3694 54.6803C85.6652 54.7789 85.9274 54.9189 86.1562 55.1003C86.3869 55.2817 86.5752 55.4977 86.7211 55.7481C86.867 55.9965 86.9607 56.2706 87.0021 56.5703H85.7007ZM89.301 54.6123V60.6697H88.0203V54.6123H89.301ZM95.6992 56.733H94.4038C94.3801 56.5654 94.3318 56.4165 94.2588 56.2864C94.1859 56.1543 94.0922 56.0419 93.9779 55.9492C93.8635 55.8565 93.7314 55.7855 93.5815 55.7362C93.4336 55.687 93.2729 55.6623 93.0994 55.6623C92.7859 55.6623 92.5128 55.7402 92.2801 55.896C92.0475 56.0498 91.867 56.2746 91.7389 56.5703C91.6107 56.8641 91.5466 57.221 91.5466 57.641C91.5466 58.0729 91.6107 58.4357 91.7389 58.7295C91.869 59.0233 92.0504 59.2451 92.2831 59.395C92.5158 59.5448 92.7849 59.6197 93.0905 59.6197C93.2621 59.6197 93.4208 59.5971 93.5667 59.5517C93.7146 59.5064 93.8457 59.4403 93.9601 59.3535C94.0745 59.2648 94.1691 59.1574 94.2441 59.0312C94.321 58.905 94.3742 58.761 94.4038 58.5993L95.6992 58.6052C95.6657 58.8833 95.5819 59.1514 95.4478 59.4097C95.3157 59.6661 95.1373 59.8958 94.9125 60.0989C94.6897 60.3 94.4235 60.4597 94.1139 60.578C93.8063 60.6944 93.4583 60.7526 93.0698 60.7526C92.5296 60.7526 92.0465 60.6303 91.6206 60.3858C91.1966 60.1413 90.8614 59.7874 90.6149 59.324C90.3704 58.8606 90.2482 58.2996 90.2482 57.641C90.2482 56.9805 90.3724 56.4185 90.6208 55.9551C90.8693 55.4917 91.2065 55.1388 91.6324 54.8963C92.0583 54.6517 92.5374 54.5295 93.0698 54.5295C93.4208 54.5295 93.7462 54.5788 94.0459 54.6774C94.3476 54.776 94.6148 54.9199 94.8474 55.1092C95.0801 55.2965 95.2694 55.5263 95.4153 55.7984C95.5632 56.0705 95.6578 56.382 95.6992 56.733ZM98.5453 60.6697V54.6123H99.826V57.1116H102.426V54.6123H103.704V60.6697H102.426V58.1675H99.826V60.6697H98.5453ZM110.326 57.641C110.326 58.3016 110.201 58.8636 109.95 59.3269C109.702 59.7903 109.363 60.1442 108.933 60.3888C108.505 60.6313 108.024 60.7526 107.489 60.7526C106.951 60.7526 106.468 60.6303 106.04 60.3858C105.612 60.1413 105.274 59.7874 105.026 59.324C104.777 58.8606 104.653 58.2996 104.653 57.641C104.653 56.9805 104.777 56.4185 105.026 55.9551C105.274 55.4917 105.612 55.1388 106.04 54.8963C106.468 54.6517 106.951 54.5295 107.489 54.5295C108.024 54.5295 108.505 54.6517 108.933 54.8963C109.363 55.1388 109.702 55.4917 109.95 55.9551C110.201 56.4185 110.326 56.9805 110.326 57.641ZM109.027 57.641C109.027 57.2131 108.963 56.8523 108.835 56.5585C108.709 56.2647 108.531 56.0419 108.3 55.8901C108.069 55.7382 107.799 55.6623 107.489 55.6623C107.18 55.6623 106.91 55.7382 106.679 55.8901C106.448 56.0419 106.269 56.2647 106.141 56.5585C106.015 56.8523 105.951 57.2131 105.951 57.641C105.951 58.0689 106.015 58.4298 106.141 58.7236C106.269 59.0174 106.448 59.2402 106.679 59.392C106.91 59.5438 107.18 59.6197 107.489 59.6197C107.799 59.6197 108.069 59.5438 108.3 59.392C108.531 59.2402 108.709 59.0174 108.835 58.7236C108.963 58.4298 109.027 58.0689 109.027 57.641ZM111.275 60.6697V54.6123H112.555V59.6138H115.152V60.6697H111.275ZM118.148 60.6697H116V54.6123H118.165C118.775 54.6123 119.299 54.7336 119.739 54.9761C120.179 55.2167 120.517 55.5627 120.753 56.0143C120.992 56.4658 121.111 57.0061 121.111 57.6351C121.111 58.2661 120.992 58.8083 120.753 59.2619C120.517 59.7154 120.177 60.0634 119.733 60.3059C119.291 60.5485 118.763 60.6697 118.148 60.6697ZM117.281 59.5724H118.094C118.473 59.5724 118.791 59.5054 119.05 59.3713C119.31 59.2352 119.505 59.0252 119.635 58.7413C119.767 58.4554 119.833 58.0867 119.833 57.6351C119.833 57.1875 119.767 56.8217 119.635 56.5378C119.505 56.2539 119.311 56.0448 119.053 55.9108C118.794 55.7767 118.476 55.7096 118.097 55.7096H117.281V59.5724ZM123.341 54.6123V60.6697H122.06V54.6123H123.341ZM129.461 54.6123V60.6697H128.355L125.719 56.8572H125.675V60.6697H124.394V54.6123H125.518L128.133 58.4219H128.186V54.6123H129.461ZM134.536 56.5703C134.494 56.4264 134.436 56.2992 134.361 56.1888C134.286 56.0764 134.194 55.9817 134.086 55.9048C133.979 55.826 133.857 55.7658 133.719 55.7244C133.583 55.683 133.432 55.6623 133.267 55.6623C132.957 55.6623 132.685 55.7392 132.45 55.893C132.218 56.0468 132.036 56.2706 131.906 56.5644C131.776 56.8562 131.711 57.2131 131.711 57.6351C131.711 58.0571 131.775 58.416 131.903 58.7117C132.031 59.0075 132.213 59.2333 132.447 59.389C132.682 59.5428 132.959 59.6197 133.279 59.6197C133.568 59.6197 133.816 59.5685 134.021 59.4659C134.228 59.3614 134.386 59.2145 134.494 59.0252C134.605 58.8359 134.66 58.6121 134.66 58.3538L134.92 58.3923H133.358V57.4281H135.893V58.1912C135.893 58.7236 135.781 59.181 135.556 59.5635C135.331 59.9441 135.022 60.2379 134.627 60.445C134.233 60.65 133.781 60.7526 133.273 60.7526C132.705 60.7526 132.206 60.6273 131.776 60.3769C131.346 60.1245 131.011 59.7666 130.77 59.3033C130.532 58.8379 130.412 58.2858 130.412 57.6469C130.412 57.156 130.483 56.7182 130.625 56.3337C130.769 55.9472 130.97 55.6199 131.229 55.3517C131.487 55.0836 131.788 54.8795 132.131 54.7395C132.474 54.5995 132.846 54.5295 133.246 54.5295C133.589 54.5295 133.908 54.5798 134.204 54.6803C134.5 54.7789 134.762 54.9189 134.991 55.1003C135.222 55.2817 135.41 55.4977 135.556 55.7481C135.702 55.9965 135.796 56.2706 135.837 56.5703H134.536ZM140.141 56.3544C140.117 56.1158 140.016 55.9305 139.836 55.7984C139.657 55.6662 139.414 55.6002 139.106 55.6002C138.897 55.6002 138.72 55.6298 138.577 55.6889C138.433 55.7461 138.322 55.826 138.245 55.9285C138.17 56.031 138.133 56.1474 138.133 56.2775C138.129 56.386 138.152 56.4806 138.201 56.5615C138.252 56.6423 138.322 56.7123 138.411 56.7715C138.5 56.8286 138.602 56.8789 138.718 56.9223C138.835 56.9637 138.959 56.9992 139.091 57.0288L139.635 57.1589C139.9 57.2181 140.142 57.2969 140.363 57.3955C140.584 57.4941 140.775 57.6154 140.937 57.7593C141.098 57.9033 141.224 58.0729 141.312 58.2681C141.403 58.4633 141.449 58.6871 141.451 58.9395C141.449 59.3102 141.355 59.6316 141.167 59.9037C140.982 60.1738 140.714 60.3838 140.363 60.5337C140.014 60.6816 139.593 60.7555 139.1 60.7555C138.611 60.7555 138.185 60.6806 137.822 60.5307C137.461 60.3809 137.179 60.159 136.976 59.8652C136.775 59.5695 136.67 59.2037 136.66 58.7679H137.899C137.913 58.971 137.971 59.1406 138.074 59.2766C138.178 59.4107 138.317 59.5123 138.491 59.5813C138.666 59.6483 138.864 59.6819 139.085 59.6819C139.302 59.6819 139.49 59.6503 139.65 59.5872C139.812 59.5241 139.937 59.4364 140.026 59.324C140.115 59.2116 140.159 59.0824 140.159 58.9365C140.159 58.8005 140.118 58.6861 140.038 58.5934C139.959 58.5007 139.842 58.4219 139.689 58.3568C139.537 58.2917 139.35 58.2326 139.13 58.1793L138.47 58.0137C137.959 57.8895 137.556 57.6953 137.26 57.431C136.965 57.1668 136.818 56.8109 136.82 56.3633C136.818 55.9965 136.915 55.6761 137.112 55.402C137.312 55.1279 137.585 54.914 137.932 54.7602C138.279 54.6064 138.673 54.5295 139.115 54.5295C139.564 54.5295 139.957 54.6064 140.292 54.7602C140.629 54.914 140.891 55.1279 141.079 55.402C141.266 55.6761 141.363 55.9936 141.369 56.3544H140.141Z" fill="white"/>
</svg>
